<?xml version="1.0" encoding="UTF-8"?>
<svg xmlns="http://www.w3.org/2000/svg" xmlns:xlink="http://www.w3.org/1999/xlink" width="2000pt" height="2000pt" viewBox="0 0 2000 2000">
<path fill-rule="nonzero" fill="rgb(0.39978%, 0.39978%, 0.39978%)" fill-opacity="1" d="M 1374.648438 566.144531 C 1346.734375 538.777344 1318.316406 516.410156 1290.296875 498.007812 L 1201.136719 627.289062 C 1284.125 672.234375 1335.457031 759.402344 1342.660156 898.613281 L 1435.894531 898.613281 L 1334.300781 1008.988281 L 1334.195312 1009.199219 C 1325.3125 1048.8125 1309.621094 1081.324219 1287.0625 1106.402344 C 1252.46875 1142.046875 1213.574219 1165.550781 1177.109375 1180.1875 L 1177.085938 1180.210938 C 1177.046875 1180.1875 1177.027344 1180.230469 1177.003906 1180.230469 C 1176.984375 1180.273438 1176.941406 1180.292969 1176.898438 1180.292969 L 1005.195312 1367.144531 L 1005.171875 1367.144531 L 1005.171875 1367.164062 L 1026.28125 1367.164062 C 1287.0625 1367.164062 1493.570312 1212.808594 1493.570312 924.953125 C 1493.570312 776.855469 1453.875 657.910156 1374.648438 566.144531 M 1119.390625 430.691406 C 1108.300781 429.136719 1098.09375 428.507812 1088.894531 428.507812 C 1067.996094 426.410156 865.644531 426.410156 483.945312 426.410156 L 483.945312 1744.824219 L 634.140625 1526.109375 L 634.140625 1367.164062 L 744.515625 1367.164062 L 744.515625 1367.144531 L 859.785156 1202.347656 L 634.140625 1202.347656 L 634.140625 1088.84375 L 511.335938 1088.84375 L 634.140625 955.890625 L 634.140625 589.039062 L 973.183594 589.039062 L 973.183594 589.019531 L 1119.414062 430.691406 Z M 630.804688 1036.585938 L 634.140625 1036.585938 L 634.140625 1032.933594 Z M 630.804688 1036.585938 "/>
<path fill-rule="nonzero" fill="rgb(0.39978%, 0.39978%, 0.39978%)" fill-opacity="1" d="M 634.140625 1770.890625 L 634.140625 1922.023438 L 495.234375 1922.023438 Z M 634.140625 1770.890625 "/>
<path fill-rule="nonzero" fill="rgb(0.39978%, 0.39978%, 0.39978%)" fill-opacity="1" d="M 634.140625 1032.925781 L 634.140625 1036.582031 L 630.792969 1036.582031 Z M 634.140625 1032.925781 "/>
<path fill-rule="nonzero" fill="rgb(0.39978%, 0.39978%, 0.39978%)" fill-opacity="1" d="M 859.6875 1202.316406 L 859.789062 1202.316406 L 744.507812 1367.140625 Z M 859.6875 1202.316406 "/>
<path fill-rule="nonzero" fill="rgb(0.39978%, 0.39978%, 0.39978%)" fill-opacity="1" d="M 1119.410156 430.667969 L 973.191406 589.011719 L 973.085938 589.011719 Z M 1119.410156 430.667969 "/>
<path fill-rule="nonzero" fill="rgb(0.39978%, 0.39978%, 0.39978%)" fill-opacity="1" d="M 1176.894531 1180.265625 C 1177 1180.265625 1177 1180.160156 1177.105469 1180.160156 L 1005.277344 1367.140625 L 1005.171875 1367.140625 Z M 1176.894531 1180.265625 "/>
<path fill-rule="nonzero" fill="rgb(0.39978%, 0.39978%, 0.39978%)" fill-opacity="1" d="M 914.78125 950.871094 L 1316.851562 950.871094 L 483.949219 1845.507812 L 1039.457031 1036.585938 L 630.808594 1036.585938 L 634.148438 1032.933594 L 1425.671875 176.191406 L 1516.15625 77.976562 Z M 914.78125 950.871094 "/>
<path fill-rule="nonzero" fill="rgb(0.39978%, 0.39978%, 0.39978%)" fill-opacity="1" d="M 483.949219 1830.777344 L 483.84375 1830.882812 "/>
</svg>
