<?xml version="1.0" encoding="UTF-8"?>
<svg xmlns="http://www.w3.org/2000/svg" xmlns:xlink="http://www.w3.org/1999/xlink" width="2000pt" height="583.619pt" viewBox="0 0 2000 583.619">
<path fill-rule="nonzero" fill="rgb(0%, 0%, 0%)" fill-opacity="1" d="M 145.375 225.117188 C 151.761719 225.117188 162.671875 222.191406 171.457031 213.140625 C 176.246094 207.820312 178.640625 199.835938 178.640625 189.457031 C 178.105469 159.386719 162.40625 147.144531 138.457031 147.144531 L 88.160156 147.144531 L 88.160156 225.382812 L 138.457031 225.382812 Z M 69.003906 317.191406 L 69.003906 126.390625 C 117.699219 126.390625 143.511719 126.390625 146.171875 126.65625 C 154.425781 126.65625 169.058594 130.910156 182.628906 144.21875 C 192.742188 155.929688 197.796875 171.097656 197.796875 189.992188 C 197.796875 226.714844 171.457031 246.40625 138.191406 246.40625 L 88.160156 246.40625 L 88.160156 317.191406 Z M 69.003906 317.191406 "/>
<path fill-rule="nonzero" fill="rgb(0%, 0%, 0%)" fill-opacity="1" d="M 224.410156 317.457031 L 224.410156 126.390625 L 327.929688 126.390625 L 327.929688 145.816406 L 243.570312 145.816406 L 243.570312 211.011719 L 312.492188 211.011719 L 312.492188 230.4375 L 243.570312 230.4375 L 243.570312 298.03125 L 327.929688 298.03125 L 327.929688 317.457031 Z M 224.410156 317.457031 "/>
<path fill-rule="nonzero" fill="rgb(0%, 0%, 0%)" fill-opacity="1" d="M 478.546875 240.816406 C 479.878906 234.695312 480.675781 228.042969 480.675781 221.125 C 480.675781 176.152344 447.945312 145.816406 410.15625 145.816406 L 373.699219 145.816406 L 373.699219 298.03125 L 410.421875 298.03125 C 441.558594 298.03125 468.964844 278.339844 478.546875 240.816406 M 354.539062 317.191406 L 354.539062 126.121094 L 410.15625 126.121094 C 459.121094 126.121094 495.84375 164.175781 499.835938 216.332031 C 499.835938 251.726562 488.125 278.871094 464.976562 297.765625 C 449.007812 310.804688 430.914062 317.191406 410.421875 317.191406 Z M 354.539062 317.191406 "/>
<path fill-rule="nonzero" fill="rgb(0%, 0%, 0%)" fill-opacity="1" d="M 589.246094 171.894531 L 560.242188 240.019531 L 616.390625 240.019531 Z M 647.257812 317.191406 L 624.109375 259.445312 L 551.992188 259.445312 L 527.242188 317.191406 L 506.488281 317.191406 L 589.78125 121.601562 L 668.019531 317.191406 Z M 647.257812 317.191406 "/>
<path fill-rule="nonzero" fill="rgb(0%, 0%, 0%)" fill-opacity="1" d="M 694.625 317.191406 L 694.625 126.125 L 713.785156 126.125 L 713.785156 298.03125 L 801.066406 298.03125 L 801.066406 317.191406 Z M 694.625 317.191406 "/>
<path fill-rule="nonzero" fill="rgb(0%, 0%, 0%)" fill-opacity="1" d="M 1117.230469 225.117188 C 1123.617188 225.117188 1134.527344 222.191406 1143.308594 213.140625 C 1148.097656 207.820312 1150.492188 199.835938 1150.492188 189.457031 C 1149.960938 159.386719 1134.261719 147.144531 1110.3125 147.144531 L 1060.015625 147.144531 L 1060.015625 225.382812 L 1110.3125 225.382812 Z M 1040.855469 317.191406 L 1040.855469 126.390625 C 1089.554688 126.390625 1115.367188 126.390625 1118.027344 126.65625 C 1126.277344 126.65625 1140.914062 130.910156 1154.484375 144.21875 C 1164.597656 155.929688 1169.652344 171.097656 1169.652344 189.992188 C 1169.652344 226.714844 1143.308594 246.40625 1110.046875 246.40625 L 1060.015625 246.40625 L 1060.015625 317.191406 Z M 1040.855469 317.191406 "/>
<path fill-rule="nonzero" fill="rgb(0%, 0%, 0%)" fill-opacity="1" d="M 1368.4375 221.390625 C 1368.4375 199.570312 1361.253906 181.207031 1346.617188 165.773438 C 1331.980469 150.605469 1313.886719 142.886719 1292.0625 142.886719 C 1246.292969 142.886719 1215.957031 180.410156 1215.957031 221.390625 C 1215.957031 265.566406 1249.488281 299.894531 1292.0625 299.894531 C 1336.503906 299.894531 1368.4375 263.96875 1368.4375 221.390625 M 1196.265625 221.390625 C 1196.265625 164.441406 1241.769531 123.195312 1292.0625 123.195312 C 1347.417969 123.195312 1388.128906 168.964844 1388.128906 221.390625 C 1388.128906 278.339844 1342.890625 319.585938 1292.0625 319.585938 C 1238.839844 319.585938 1196.265625 275.144531 1196.265625 221.390625 "/>
<path fill-rule="nonzero" fill="rgb(0%, 0%, 0%)" fill-opacity="1" d="M 1520.390625 185.464844 L 1471.160156 319.851562 L 1403.570312 126.125 L 1423.792969 126.125 C 1455.992188 218.460938 1434.171875 172.160156 1471.425781 261.839844 L 1520.390625 128.25 L 1569.089844 261.839844 L 1616.722656 126.125 L 1636.945312 126.125 L 1569.355469 319.851562 Z M 1520.390625 185.464844 "/>
<path fill-rule="nonzero" fill="rgb(0%, 0%, 0%)" fill-opacity="1" d="M 1663.558594 317.457031 L 1663.558594 126.390625 L 1767.074219 126.390625 L 1767.074219 145.816406 L 1682.71875 145.816406 L 1682.71875 211.011719 L 1751.640625 211.011719 L 1751.640625 230.4375 L 1682.71875 230.4375 L 1682.71875 298.03125 L 1767.074219 298.03125 L 1767.074219 317.457031 Z M 1663.558594 317.457031 "/>
<path fill-rule="nonzero" fill="rgb(0%, 0%, 0%)" fill-opacity="1" d="M 1870.058594 225.117188 C 1876.710938 225.117188 1887.089844 221.925781 1896.136719 213.140625 C 1900.925781 207.554688 1903.320312 199.835938 1903.320312 189.722656 C 1902.789062 159.386719 1887.089844 147.144531 1863.140625 147.144531 L 1812.84375 147.144531 L 1812.84375 225.382812 L 1863.140625 225.382812 Z M 1907.046875 317.191406 L 1854.621094 246.40625 L 1812.84375 246.40625 L 1812.84375 317.191406 L 1793.683594 317.191406 L 1793.683594 126.390625 C 1848.769531 126.390625 1856.75 126.65625 1870.855469 126.65625 C 1879.105469 126.65625 1893.476562 130.910156 1907.3125 144.21875 C 1917.425781 155.929688 1922.480469 171.097656 1922.480469 189.992188 C 1922.480469 223.519531 1901.992188 241.882812 1877.511719 245.074219 L 1930.996094 317.191406 Z M 1907.046875 317.191406 "/>
<path fill-rule="nonzero" fill="rgb(0%, 0%, 0%)" fill-opacity="1" d="M 381.140625 475.132812 L 381.140625 389.589844 L 353.199219 389.589844 L 353.199219 380.054688 L 418.617188 380.054688 L 418.617188 389.589844 L 390.675781 389.589844 L 390.675781 475.132812 Z M 381.140625 475.132812 "/>
<path fill-rule="nonzero" fill="rgb(0%, 0%, 0%)" fill-opacity="1" d="M 469.855469 428.390625 C 473.164062 428.390625 478.328125 426.800781 482.832031 422.429688 C 485.214844 419.648438 486.40625 415.808594 486.40625 410.777344 C 486.144531 395.679688 478.328125 389.589844 466.410156 389.589844 L 441.382812 389.589844 L 441.382812 428.523438 L 466.410156 428.523438 Z M 488.261719 474.207031 L 462.171875 438.984375 L 441.382812 438.984375 L 441.382812 474.207031 L 431.847656 474.207031 L 431.847656 379.261719 C 459.261719 379.261719 463.230469 379.394531 470.25 379.394531 C 474.355469 379.394531 481.507812 381.511719 488.394531 388.132812 C 493.425781 393.960938 495.941406 401.507812 495.941406 410.910156 C 495.941406 427.59375 485.746094 436.734375 473.5625 438.320312 L 500.179688 474.207031 Z M 488.261719 474.207031 "/>
<path fill-rule="nonzero" fill="rgb(0%, 0%, 0%)" fill-opacity="1" d="M 554.59375 401.902344 L 540.160156 435.804688 L 568.101562 435.804688 Z M 583.460938 474.207031 L 571.941406 445.472656 L 536.054688 445.472656 L 523.742188 474.207031 L 513.410156 474.207031 L 554.859375 376.878906 L 593.792969 474.207031 Z M 583.460938 474.207031 "/>
<path fill-rule="nonzero" fill="rgb(0%, 0%, 0%)" fill-opacity="1" d="M 607.019531 379.128906 L 616.554688 379.128906 L 616.554688 474.207031 L 607.019531 474.207031 Z M 607.019531 379.128906 "/>
<path fill-rule="nonzero" fill="rgb(0%, 0%, 0%)" fill-opacity="1" d="M 641.84375 403.890625 L 641.84375 474.207031 L 632.042969 474.207031 L 632.042969 377.671875 L 694.546875 449.046875 L 694.414062 379.261719 L 704.214844 379.261719 L 704.214844 475.132812 Z M 641.84375 403.890625 "/>
<path fill-rule="nonzero" fill="rgb(0%, 0%, 0%)" fill-opacity="1" d="M 719.695312 379.128906 L 729.230469 379.128906 L 729.230469 474.207031 L 719.695312 474.207031 Z M 719.695312 379.128906 "/>
<path fill-rule="nonzero" fill="rgb(0%, 0%, 0%)" fill-opacity="1" d="M 754.519531 403.890625 L 754.519531 474.207031 L 744.71875 474.207031 L 744.71875 377.671875 L 807.222656 449.046875 L 807.089844 379.261719 L 816.890625 379.261719 L 816.890625 475.132812 Z M 754.519531 403.890625 "/>
<path fill-rule="nonzero" fill="rgb(0%, 0%, 0%)" fill-opacity="1" d="M 830.117188 426.136719 C 830.117188 398.460938 851.703125 377.273438 877.394531 377.273438 C 889.578125 377.273438 899.90625 381.511719 910.765625 391.445312 L 904.410156 398.726562 C 895.136719 390.25 887.195312 386.941406 877.394531 386.941406 C 866.800781 386.941406 857.792969 390.78125 850.511719 398.328125 C 843.226562 406.011719 839.652344 415.148438 839.652344 426.136719 C 839.652344 436.734375 843.226562 446.003906 850.511719 453.683594 C 857.792969 461.363281 866.800781 465.203125 877.394531 465.203125 C 887.0625 465.203125 895.402344 461.761719 902.554688 455.007812 L 902.554688 433.023438 L 878.984375 433.289062 L 878.984375 423.621094 L 912.222656 423.226562 L 912.222656 459.109375 C 902.15625 469.703125 890.503906 475.003906 877.394531 475.003906 C 849.984375 475.003906 830.117188 451.695312 830.117188 426.136719 "/>
<path fill-rule="nonzero" fill="rgb(0%, 0%, 0%)" fill-opacity="1" d="M 960.933594 455.667969 L 969.804688 451.828125 C 972.984375 458.980469 976.425781 462.421875 982.121094 464.542969 C 985.695312 465.734375 989.269531 466.394531 992.714844 466.394531 C 998.011719 466.394531 1002.777344 465.203125 1006.882812 462.820312 C 1010.988281 460.4375 1013.375 456.597656 1013.769531 451.296875 C 1013.238281 443.75 1004.234375 437.527344 992.316406 432.230469 C 976.027344 424.417969 963.449219 414.222656 963.449219 402.832031 C 963.449219 390.25 974.835938 378.46875 993.375 378.46875 C 995.363281 378.46875 998.277344 378.863281 1002.117188 379.527344 C 1005.957031 380.320312 1009.796875 381.910156 1013.636719 384.558594 C 1018.539062 387.734375 1021.183594 391.707031 1024.496094 398.726562 L 1015.625 402.433594 C 1012.710938 395.683594 1008.605469 391.578125 1003.308594 389.855469 C 1000 388.664062 996.6875 388.132812 993.375 388.132812 C 983.578125 388.132812 973.246094 392.105469 973.246094 403.097656 C 974.175781 407.46875 977.355469 411.707031 982.78125 415.410156 C 988.078125 419.253906 992.714844 421.902344 996.554688 423.488281 C 1002.382812 426.003906 1008.207031 429.449219 1013.902344 433.820312 C 1019.59375 438.1875 1022.773438 444.015625 1023.4375 451.296875 C 1022.90625 466.527344 1009.136719 475.929688 992.714844 475.929688 C 979.738281 475.929688 967.820312 470.234375 960.933594 455.667969 "/>
<path fill-rule="nonzero" fill="rgb(0%, 0%, 0%)" fill-opacity="1" d="M 1116.785156 426.535156 C 1116.785156 415.675781 1113.210938 406.539062 1105.925781 398.859375 C 1098.644531 391.308594 1089.640625 387.472656 1078.78125 387.472656 C 1056.003906 387.472656 1040.90625 406.140625 1040.90625 426.535156 C 1040.90625 448.515625 1057.59375 465.601562 1078.78125 465.601562 C 1100.894531 465.601562 1116.785156 447.722656 1116.785156 426.535156 M 1031.109375 426.535156 C 1031.109375 398.199219 1053.753906 377.671875 1078.78125 377.671875 C 1106.324219 377.671875 1126.585938 400.449219 1126.585938 426.535156 C 1126.585938 454.875 1104.074219 475.398438 1078.78125 475.398438 C 1052.296875 475.398438 1031.109375 453.285156 1031.109375 426.535156 "/>
<path fill-rule="nonzero" fill="rgb(0%, 0%, 0%)" fill-opacity="1" d="M 1139.8125 474.207031 L 1139.8125 379.128906 L 1149.347656 379.128906 L 1149.347656 464.671875 L 1192.78125 464.671875 L 1192.78125 474.207031 Z M 1139.8125 474.207031 "/>
<path fill-rule="nonzero" fill="rgb(0%, 0%, 0%)" fill-opacity="1" d="M 1206.015625 441.765625 L 1206.015625 379.789062 L 1215.417969 379.789062 L 1215.417969 441.765625 C 1215.417969 454.476562 1225.085938 465.996094 1240.183594 465.996094 C 1254.351562 465.070312 1265.078125 454.078125 1265.078125 442.03125 L 1265.078125 379.789062 L 1274.480469 379.789062 L 1274.480469 441.765625 C 1274.480469 458.582031 1260.042969 474.339844 1240.3125 475.664062 C 1220.1875 475.664062 1206.015625 459.640625 1206.015625 441.765625 "/>
<path fill-rule="nonzero" fill="rgb(0%, 0%, 0%)" fill-opacity="1" d="M 1315.652344 474.871094 L 1315.652344 389.457031 L 1287.710938 389.457031 L 1287.710938 379.789062 L 1353.128906 379.789062 L 1353.128906 389.457031 L 1325.1875 389.457031 L 1325.1875 474.871094 Z M 1315.652344 474.871094 "/>
<path fill-rule="nonzero" fill="rgb(0%, 0%, 0%)" fill-opacity="1" d="M 1366.359375 379.128906 L 1375.894531 379.128906 L 1375.894531 474.207031 L 1366.359375 474.207031 Z M 1366.359375 379.128906 "/>
<path fill-rule="nonzero" fill="rgb(0%, 0%, 0%)" fill-opacity="1" d="M 1474.808594 426.535156 C 1474.808594 415.675781 1471.234375 406.539062 1463.949219 398.859375 C 1456.667969 391.308594 1447.664062 387.472656 1436.804688 387.472656 C 1414.027344 387.472656 1398.933594 406.140625 1398.933594 426.535156 C 1398.933594 448.515625 1415.617188 465.601562 1436.804688 465.601562 C 1458.917969 465.601562 1474.808594 447.722656 1474.808594 426.535156 M 1389.132812 426.535156 C 1389.132812 398.199219 1411.777344 377.671875 1436.804688 377.671875 C 1464.347656 377.671875 1484.609375 400.449219 1484.609375 426.535156 C 1484.609375 454.875 1462.097656 475.398438 1436.804688 475.398438 C 1410.320312 475.398438 1389.132812 453.285156 1389.132812 426.535156 "/>
<path fill-rule="nonzero" fill="rgb(0%, 0%, 0%)" fill-opacity="1" d="M 1507.636719 403.890625 L 1507.636719 474.207031 L 1497.835938 474.207031 L 1497.835938 377.671875 L 1560.339844 449.046875 L 1560.207031 379.261719 L 1570.007812 379.261719 L 1570.007812 475.132812 Z M 1507.636719 403.890625 "/>
<path fill-rule="nonzero" fill="rgb(0%, 0%, 0%)" fill-opacity="1" d="M 1583.238281 455.667969 L 1592.109375 451.828125 C 1595.289062 458.980469 1598.730469 462.421875 1604.425781 464.542969 C 1608 465.734375 1611.574219 466.394531 1615.019531 466.394531 C 1620.316406 466.394531 1625.082031 465.203125 1629.1875 462.820312 C 1633.292969 460.4375 1635.675781 456.597656 1636.074219 451.296875 C 1635.542969 443.75 1626.539062 437.527344 1614.621094 432.230469 C 1598.332031 424.417969 1585.753906 414.222656 1585.753906 402.832031 C 1585.753906 390.25 1597.140625 378.46875 1615.679688 378.46875 C 1617.667969 378.46875 1620.578125 378.863281 1624.421875 379.527344 C 1628.261719 380.320312 1632.101562 381.910156 1635.941406 384.558594 C 1640.839844 387.734375 1643.488281 391.707031 1646.800781 398.726562 L 1637.929688 402.433594 C 1635.015625 395.683594 1630.910156 391.578125 1625.613281 389.855469 C 1622.304688 388.664062 1618.992188 388.132812 1615.679688 388.132812 C 1605.882812 388.132812 1595.550781 392.105469 1595.550781 403.097656 C 1596.480469 407.46875 1599.660156 411.707031 1605.085938 415.410156 C 1610.382812 419.253906 1615.019531 421.902344 1618.859375 423.488281 C 1624.6875 426.003906 1630.511719 429.449219 1636.207031 433.820312 C 1641.898438 438.1875 1645.078125 444.015625 1645.742188 451.296875 C 1645.210938 466.527344 1631.4375 475.929688 1615.019531 475.929688 C 1602.042969 475.929688 1590.125 470.234375 1583.238281 455.667969 "/>
<path fill-rule="nonzero" fill="rgb(0.39978%, 0.39978%, 0.39978%)" fill-opacity="1" d="M 987.949219 107.308594 L 985.476562 110.890625 L 985.46875 110.902344 L 913.90625 214.789062 L 968.660156 214.789062 L 855.566406 334.140625 L 930.878906 226.464844 L 875.214844 226.464844 L 875.667969 225.964844 Z M 987.949219 107.308594 "/>
</svg>
