<?xml version="1.0" encoding="UTF-8"?>
<svg xmlns="http://www.w3.org/2000/svg" xmlns:xlink="http://www.w3.org/1999/xlink" width="2000pt" height="782.699pt" viewBox="0 0 2000 782.699">
<path fill-rule="nonzero" fill="rgb(0%, 0%, 0%)" fill-opacity="1" d="M 287.492188 387.425781 C 303.480469 387.425781 330.796875 380.097656 352.78125 357.441406 C 364.777344 344.117188 370.773438 324.128906 370.773438 298.144531 C 369.441406 222.859375 330.128906 192.210938 270.167969 192.210938 L 144.246094 192.210938 L 144.246094 388.089844 L 270.167969 388.089844 Z M 96.277344 617.945312 L 96.277344 140.242188 C 218.199219 140.242188 282.824219 140.242188 289.488281 140.910156 C 310.140625 140.910156 346.785156 151.570312 380.765625 184.882812 C 406.082031 214.199219 418.742188 252.175781 418.742188 299.476562 C 418.742188 391.421875 352.78125 440.726562 269.5 440.726562 L 144.246094 440.726562 L 144.246094 617.945312 Z M 96.277344 617.945312 "/>
<path fill-rule="nonzero" fill="rgb(0%, 0%, 0%)" fill-opacity="1" d="M 681.679688 387.425781 C 697.667969 387.425781 724.988281 380.097656 746.972656 357.441406 C 758.964844 344.117188 764.960938 324.128906 764.960938 298.144531 C 763.628906 222.859375 724.320312 192.210938 664.359375 192.210938 L 538.433594 192.210938 L 538.433594 388.089844 L 664.359375 388.089844 Z M 490.46875 617.945312 L 490.46875 140.242188 C 612.390625 140.242188 677.015625 140.242188 683.679688 140.910156 C 704.332031 140.910156 740.976562 151.570312 774.957031 184.882812 C 800.273438 214.199219 812.929688 252.175781 812.929688 299.476562 C 812.929688 391.421875 746.972656 440.726562 663.691406 440.726562 L 538.433594 440.726562 L 538.433594 617.945312 Z M 490.46875 617.945312 "/>
<path fill-rule="nonzero" fill="rgb(0%, 0%, 0%)" fill-opacity="1" d="M 1379.726562 621.277344 L 1379.726562 191.542969 L 1239.148438 191.542969 L 1239.148438 142.910156 L 1568.277344 142.910156 L 1568.277344 191.542969 L 1427.699219 191.542969 L 1427.699219 621.277344 Z M 1379.726562 621.277344 "/>
<path fill-rule="nonzero" fill="rgb(0%, 0%, 0%)" fill-opacity="1" d="M 1583.921875 524.671875 L 1628.558594 505.351562 C 1644.550781 541.328125 1661.875 558.648438 1690.523438 569.308594 C 1708.511719 575.304688 1726.5 578.636719 1743.820312 578.636719 C 1770.472656 578.636719 1794.460938 572.640625 1815.113281 560.648438 C 1835.765625 548.65625 1847.757812 529.335938 1849.757812 502.683594 C 1847.09375 464.710938 1801.785156 433.394531 1741.824219 406.742188 C 1659.875 367.433594 1596.582031 316.136719 1596.582031 258.835938 C 1596.582031 195.542969 1653.882812 136.246094 1747.15625 136.246094 C 1757.148438 136.246094 1771.804688 138.246094 1791.125 141.578125 C 1810.449219 145.574219 1829.769531 153.570312 1849.089844 166.894531 C 1873.742188 182.882812 1887.066406 202.871094 1903.722656 238.183594 L 1859.085938 256.839844 C 1844.425781 222.859375 1823.773438 202.203125 1797.121094 193.542969 C 1780.464844 187.546875 1763.8125 184.882812 1747.15625 184.882812 C 1697.851562 184.882812 1645.882812 204.871094 1645.882812 260.167969 C 1650.546875 282.15625 1666.539062 303.476562 1693.855469 322.128906 C 1720.503906 341.453125 1743.820312 354.777344 1763.144531 362.773438 C 1792.460938 375.429688 1821.777344 392.753906 1850.421875 414.738281 C 1879.074219 436.726562 1895.0625 466.042969 1898.394531 502.683594 C 1895.726562 579.304688 1826.441406 626.609375 1743.820312 626.609375 C 1678.53125 626.609375 1618.566406 597.957031 1583.921875 524.671875 "/>
<path fill-rule="nonzero" fill="rgb(0.39978%, 0.39978%, 0.39978%)" fill-opacity="1" d="M 1213.992188 35.226562 L 1206.230469 46.472656 L 1206.203125 46.507812 L 981.601562 372.570312 L 1153.453125 372.570312 L 798.492188 747.171875 L 1034.867188 409.210938 L 860.160156 409.210938 L 861.585938 407.640625 Z M 1213.992188 35.226562 "/>
</svg>
